Normalized EMG Linear Envelopes
nRows=27
nColumns=17

endheader
time	        VM	        VL	        RF	       GRA	        TA	   ADDLONG	   SEMIMEM	      BFLH	        GM	        GL	       TFL	   GLUTMAX	   GLUTMED	      PIRI	    OBTINT	        QF	
1.596	  0.000000	  0.000000	  0.014610	  0.275137	  0.108586	  0.278488	  0.054706	  0.024794	  0.199834	  0.098040	  0.164500	  0.000000	  0.632729	  0.163381	  0.436020	  0.277142	
1.5965	  0.000000	  0.000000	  0.014871	  0.278329	  0.110561	  0.280298	  0.054785	  0.024786	  0.195418	  0.095404	  0.165495	  0.000000	  0.630980	  0.163737	  0.433764	  0.277636	
1.597	  0.000000	  0.000000	  0.015138	  0.281513	  0.112583	  0.282071	  0.054874	  0.024795	  0.191058	  0.092816	  0.166476	  0.000000	  0.629040	  0.164091	  0.431473	  0.278078	
1.5975	  0.000000	  0.000000	  0.015412	  0.284689	  0.114650	  0.283805	  0.054973	  0.024823	  0.186756	  0.090277	  0.167443	  0.000000	  0.626913	  0.164442	  0.429148	  0.278466	
1.598	  0.000000	  0.000000	  0.015693	  0.287855	  0.116764	  0.285501	  0.055081	  0.024868	  0.182510	  0.087785	  0.168397	  0.000000	  0.624602	  0.164790	  0.426792	  0.278797	
1.5985	  0.000000	  0.000000	  0.015981	  0.291009	  0.118922	  0.287157	  0.055198	  0.024929	  0.178322	  0.085342	  0.169337	  0.000000	  0.622110	  0.165135	  0.424404	  0.279071	
1.599	  0.000000	  0.000000	  0.016276	  0.294151	  0.121127	  0.288774	  0.055325	  0.025008	  0.174193	  0.082947	  0.170264	  0.000000	  0.619440	  0.165475	  0.421987	  0.279286	
1.5995	  0.000000	  0.000000	  0.016577	  0.297280	  0.123376	  0.290350	  0.055461	  0.025102	  0.170121	  0.080599	  0.171177	  0.000000	  0.616595	  0.165811	  0.419542	  0.279439	
1.6	  0.000000	  0.000000	  0.016886	  0.300393	  0.125670	  0.291884	  0.055605	  0.025212	  0.166109	  0.078300	  0.172078	  0.000000	  0.613579	  0.166143	  0.417070	  0.279531	
1.6005	  0.000000	  0.000000	  0.017202	  0.303491	  0.128008	  0.293376	  0.055759	  0.025337	  0.162156	  0.076047	  0.172965	  0.000000	  0.610393	  0.166469	  0.414571	  0.279561	
1.601	  0.000000	  0.000000	  0.017525	  0.306572	  0.130391	  0.294825	  0.055920	  0.025477	  0.158262	  0.073842	  0.173839	  0.000000	  0.607042	  0.166790	  0.412047	  0.279528	
1.6015	  0.000000	  0.000000	  0.017855	  0.309635	  0.132817	  0.296230	  0.056089	  0.025630	  0.154427	  0.071685	  0.174701	  0.000000	  0.603529	  0.167105	  0.409498	  0.279433	
1.602	  0.000000	  0.000000	  0.018192	  0.312678	  0.135286	  0.297590	  0.056267	  0.025798	  0.150652	  0.069574	  0.175550	  0.000000	  0.599857	  0.167414	  0.406925	  0.279276	
1.6025	  0.000000	  0.000000	  0.018537	  0.315701	  0.137799	  0.298904	  0.056451	  0.025978	  0.146937	  0.067510	  0.176387	  0.000000	  0.596030	  0.167716	  0.404328	  0.279058	
1.603	  0.000000	  0.000000	  0.018888	  0.318703	  0.140353	  0.300171	  0.056644	  0.026172	  0.143282	  0.065492	  0.177212	  0.000000	  0.592052	  0.168010	  0.401708	  0.278779	
1.6035	  0.000000	  0.000000	  0.019247	  0.321681	  0.142950	  0.301390	  0.056843	  0.026377	  0.139687	  0.063520	  0.178025	  0.000000	  0.587927	  0.168295	  0.399064	  0.278440	
1.604	  0.000000	  0.000000	  0.019614	  0.324636	  0.145588	  0.302561	  0.057049	  0.026594	  0.136151	  0.061594	  0.178828	  0.000000	  0.583661	  0.168572	  0.396398	  0.278042	
1.6045	  0.000000	  0.000000	  0.019987	  0.327566	  0.148266	  0.303681	  0.057262	  0.026823	  0.132676	  0.059713	  0.179620	  0.000000	  0.579258	  0.168839	  0.393709	  0.277585	
1.605	  0.000000	  0.000000	  0.020369	  0.330470	  0.150984	  0.304751	  0.057480	  0.027062	  0.129260	  0.057877	  0.180402	  0.000000	  0.574724	  0.169097	  0.390997	  0.277070	
1.6055	  0.000000	  0.000000	  0.020757	  0.333345	  0.153742	  0.305770	  0.057705	  0.027312	  0.125904	  0.056087	  0.181174	  0.000000	  0.570062	  0.169343	  0.388263	  0.276496	
1.606	  0.000000	  0.000000	  0.021153	  0.336192	  0.156538	  0.306735	  0.057935	  0.027572	  0.122608	  0.054340	  0.181937	  0.000000	  0.565280	  0.169578	  0.385507	  0.275865	
1.6065	  0.000000	  0.000000	  0.021556	  0.339008	  0.159371	  0.307648	  0.058171	  0.027841	  0.119371	  0.052638	  0.182690	  0.000000	  0.560382	  0.169801	  0.382729	  0.275178	
1.607	  0.000000	  0.000000	  0.021968	  0.341792	  0.162242	  0.308508	  0.058411	  0.028120	  0.116194	  0.050979	  0.183435	  0.000000	  0.555374	  0.170012	  0.379929	  0.274433	
1.6075	  0.000000	  0.000000	  0.022386	  0.344542	  0.165149	  0.309313	  0.058656	  0.028407	  0.113076	  0.049363	  0.184171	  0.000000	  0.550261	  0.170211	  0.377108	  0.273634	
1.608	  0.000000	  0.000000	  0.022813	  0.347257	  0.168092	  0.310066	  0.058905	  0.028702	  0.110016	  0.047789	  0.184899	  0.000000	  0.545049	  0.170396	  0.374266	  0.272780	
1.6085	  0.000000	  0.000000	  0.023247	  0.349935	  0.171068	  0.310765	  0.059158	  0.029005	  0.107016	  0.046259	  0.185619	  0.000000	  0.539744	  0.170568	  0.371404	  0.271872	
1.609	  0.000000	  0.000000	  0.023689	  0.352573	  0.174079	  0.311410	  0.059415	  0.029314	  0.104074	  0.044769	  0.186330	  0.000000	  0.534351	  0.170727	  0.368521	  0.270913	
